<svg width="27" height="25" viewBox="0 0 27 25" fill="none" xmlns="http://www.w3.org/2000/svg">
<mask id="path-1-inside-1_1139_59398" fill="white">
<path d="M24.1991 1.959C23.5937 1.45282 22.8844 1.08613 22.1213 0.884954C21.3583 0.683779 20.5604 0.653058 19.7842 0.794971L15.6686 1.54228C14.7184 1.71677 13.8545 2.20562 13.2156 2.93028C12.5751 2.20437 11.7087 1.7154 10.7562 1.54228L6.64711 0.794971C5.8709 0.652933 5.07296 0.683252 4.30977 0.883782C3.54657 1.08431 2.83679 1.45015 2.23065 1.9554C1.62452 2.46065 1.13686 3.09295 0.802179 3.80756C0.467503 4.52217 0.293998 5.30162 0.293945 6.09071L0.293945 17.7127C0.294007 18.9734 0.736488 20.1942 1.54426 21.1621C2.35204 22.1301 3.47388 22.7838 4.71424 23.0095L11.4831 24.2403C12.6287 24.4485 13.8025 24.4485 14.9482 24.2403L21.7224 23.0095C22.9618 22.7827 24.0824 22.1285 24.8891 21.1606C25.6958 20.1928 26.1375 18.9727 26.1373 17.7127V6.09071C26.1378 5.30189 25.9644 4.52266 25.6294 3.80852C25.2943 3.09437 24.806 2.46288 24.1991 1.959ZM12.1388 22.1653C12.0484 22.1524 11.9579 22.1373 11.8675 22.1212L5.09974 20.8914C4.35541 20.756 3.68222 20.3636 3.19754 19.7827C2.71287 19.2018 2.44745 18.4692 2.44756 17.7127V6.09071C2.44756 5.23395 2.78791 4.41228 3.39373 3.80646C3.99955 3.20064 4.82122 2.86029 5.67798 2.86029C5.87298 2.86075 6.06756 2.87841 6.25946 2.91305L10.3729 3.66682C10.8678 3.75738 11.3154 4.01836 11.6379 4.40448C11.9605 4.79059 12.1377 5.27746 12.1388 5.78059V22.1653ZM23.9837 17.7127C23.9838 18.4692 23.7184 19.2018 23.2337 19.7827C22.7491 20.3636 22.0759 20.756 21.3315 20.8914L14.5638 22.1212C14.4733 22.1373 14.3829 22.1524 14.2924 22.1653V5.78059C14.2924 5.27623 14.4693 4.78783 14.7924 4.40056C15.1156 4.01329 15.5643 3.75172 16.0606 3.66143L20.175 2.90767C20.641 2.82289 21.1199 2.84161 21.5778 2.96249C22.0357 3.08337 22.4615 3.30346 22.8249 3.60717C23.1883 3.91088 23.4805 4.29078 23.6807 4.71996C23.881 5.14914 23.9844 5.61711 23.9837 6.09071V17.7127Z"/>
</mask>
<path d="M24.1991 1.959C23.5937 1.45282 22.8844 1.08613 22.1213 0.884954C21.3583 0.683779 20.5604 0.653058 19.7842 0.794971L15.6686 1.54228C14.7184 1.71677 13.8545 2.20562 13.2156 2.93028C12.5751 2.20437 11.7087 1.7154 10.7562 1.54228L6.64711 0.794971C5.8709 0.652933 5.07296 0.683252 4.30977 0.883782C3.54657 1.08431 2.83679 1.45015 2.23065 1.9554C1.62452 2.46065 1.13686 3.09295 0.802179 3.80756C0.467503 4.52217 0.293998 5.30162 0.293945 6.09071L0.293945 17.7127C0.294007 18.9734 0.736488 20.1942 1.54426 21.1621C2.35204 22.1301 3.47388 22.7838 4.71424 23.0095L11.4831 24.2403C12.6287 24.4485 13.8025 24.4485 14.9482 24.2403L21.7224 23.0095C22.9618 22.7827 24.0824 22.1285 24.8891 21.1606C25.6958 20.1928 26.1375 18.9727 26.1373 17.7127V6.09071C26.1378 5.30189 25.9644 4.52266 25.6294 3.80852C25.2943 3.09437 24.806 2.46288 24.1991 1.959ZM12.1388 22.1653C12.0484 22.1524 11.9579 22.1373 11.8675 22.1212L5.09974 20.8914C4.35541 20.756 3.68222 20.3636 3.19754 19.7827C2.71287 19.2018 2.44745 18.4692 2.44756 17.7127V6.09071C2.44756 5.23395 2.78791 4.41228 3.39373 3.80646C3.99955 3.20064 4.82122 2.86029 5.67798 2.86029C5.87298 2.86075 6.06756 2.87841 6.25946 2.91305L10.3729 3.66682C10.8678 3.75738 11.3154 4.01836 11.6379 4.40448C11.9605 4.79059 12.1377 5.27746 12.1388 5.78059V22.1653ZM23.9837 17.7127C23.9838 18.4692 23.7184 19.2018 23.2337 19.7827C22.7491 20.3636 22.0759 20.756 21.3315 20.8914L14.5638 22.1212C14.4733 22.1373 14.3829 22.1524 14.2924 22.1653V5.78059C14.2924 5.27623 14.4693 4.78783 14.7924 4.40056C15.1156 4.01329 15.5643 3.75172 16.0606 3.66143L20.175 2.90767C20.641 2.82289 21.1199 2.84161 21.5778 2.96249C22.0357 3.08337 22.4615 3.30346 22.8249 3.60717C23.1883 3.91088 23.4805 4.29078 23.6807 4.71996C23.881 5.14914 23.9844 5.61711 23.9837 6.09071V17.7127Z" fill="#333333"/>
<path d="M24.1991 1.959L24.1349 2.03572L24.1352 2.03594L24.1991 1.959ZM19.7842 0.794971L19.802 0.893362L19.8022 0.893341L19.7842 0.794971ZM15.6686 1.54228L15.6507 1.44388L15.6505 1.44392L15.6686 1.54228ZM13.2156 2.93028L13.1407 2.99644L13.2157 3.08146L13.2906 2.99641L13.2156 2.93028ZM10.7562 1.54228L10.7383 1.64066L10.7383 1.64066L10.7562 1.54228ZM6.64711 0.794971L6.62911 0.893338L6.62922 0.893357L6.64711 0.794971ZM0.293945 6.09071L0.193945 6.09071V6.09071H0.293945ZM0.293945 17.7127H0.193945V17.7127L0.293945 17.7127ZM4.71424 23.0095L4.69634 23.1079L4.69635 23.1079L4.71424 23.0095ZM11.4831 24.2403L11.4652 24.3387L11.4652 24.3387L11.4831 24.2403ZM14.9482 24.2403L14.9303 24.1419H14.9303L14.9482 24.2403ZM21.7224 23.0095L21.7403 23.1079L21.7404 23.1079L21.7224 23.0095ZM26.1373 17.7127H26.0373V17.7127L26.1373 17.7127ZM26.1373 6.09071L26.0373 6.09065V6.09071H26.1373ZM12.1388 22.1653L12.1247 22.2643L12.2388 22.2806V22.1653H12.1388ZM11.8675 22.1212L11.8496 22.2195L11.8499 22.2196L11.8675 22.1212ZM5.09974 20.8914L5.08184 20.9898L5.08186 20.9898L5.09974 20.8914ZM2.44756 17.7127L2.54756 17.7127V17.7127H2.44756ZM2.44756 6.09071H2.34756H2.44756ZM5.67798 2.86029L5.67822 2.76029H5.67798V2.86029ZM6.25946 2.91305L6.27748 2.81469L6.27723 2.81464L6.25946 2.91305ZM10.3729 3.66682L10.3548 3.76518L10.3549 3.76518L10.3729 3.66682ZM12.1388 5.78059H12.2388V5.78038L12.1388 5.78059ZM23.9837 17.7127H23.8837V17.7127L23.9837 17.7127ZM21.3315 20.8914L21.3494 20.9898L21.3494 20.9898L21.3315 20.8914ZM14.5638 22.1212L14.5814 22.2196L14.5817 22.2195L14.5638 22.1212ZM14.2924 22.1653H14.1924V22.2806L14.3066 22.2643L14.2924 22.1653ZM14.2924 5.78059H14.3924V5.78058L14.2924 5.78059ZM16.0606 3.66143L16.0785 3.75982L16.0786 3.7598L16.0606 3.66143ZM20.175 2.90767L20.1571 2.80928L20.157 2.80931L20.175 2.90767ZM23.9837 6.09071L23.8837 6.09056V6.09071H23.9837ZM24.2632 1.88229C23.6466 1.36669 22.9241 0.993176 22.1468 0.788259L22.0959 0.98165C22.8447 1.17908 23.5408 1.53896 24.1349 2.03572L24.2632 1.88229ZM22.1468 0.788259C21.3696 0.583341 20.5568 0.552048 19.7662 0.696602L19.8022 0.893341C20.5639 0.754067 21.347 0.784217 22.0959 0.98165L22.1468 0.788259ZM19.7663 0.69658L15.6507 1.44388L15.6865 1.64067L19.802 0.893362L19.7663 0.69658ZM15.6505 1.44392C14.6783 1.62246 13.7943 2.12266 13.1406 2.86415L13.2906 2.99641C13.9147 2.28857 14.7586 1.81107 15.6867 1.64063L15.6505 1.44392ZM13.2906 2.86412C12.6352 2.12135 11.7487 1.62103 10.7741 1.44389L10.7383 1.64066C11.6687 1.80977 12.515 2.28738 13.1407 2.99644L13.2906 2.86412ZM10.7741 1.44389L6.665 0.696585L6.62922 0.893357L10.7383 1.64066L10.7741 1.44389ZM6.66511 0.696604C5.87448 0.551929 5.06172 0.582811 4.28435 0.787064L4.33518 0.980499C5.0842 0.783694 5.86732 0.753938 6.62911 0.893338L6.66511 0.696604ZM4.28435 0.787064C3.50699 0.991318 2.78402 1.36395 2.16663 1.87858L2.29468 2.03221C2.88956 1.53635 3.58616 1.1773 4.33518 0.980499L4.28435 0.787064ZM2.16663 1.87858C1.54923 2.39322 1.05251 3.03727 0.711619 3.76515L0.89274 3.84998C1.2212 3.14864 1.69981 2.52808 2.29468 2.03221L2.16663 1.87858ZM0.711619 3.76515C0.370727 4.49303 0.193999 5.28695 0.193945 6.09071L0.393945 6.09072C0.393997 5.31628 0.56428 4.55131 0.89274 3.84998L0.711619 3.76515ZM0.193945 6.09071V17.7127H0.393945V6.09071H0.193945ZM0.193945 17.7127C0.194008 18.9968 0.644708 20.2402 1.46749 21.2262L1.62104 21.098C0.828269 20.1481 0.394006 18.95 0.393945 17.7127L0.193945 17.7127ZM1.46749 21.2262C2.29026 22.2121 3.43294 22.878 4.69634 23.1079L4.73214 22.9111C3.51481 22.6897 2.41381 22.048 1.62104 21.098L1.46749 21.2262ZM4.69635 23.1079L11.4652 24.3387L11.5009 24.1419L4.73213 22.9111L4.69635 23.1079ZM11.4652 24.3387C12.6227 24.549 13.8086 24.549 14.9661 24.3387L14.9303 24.1419C13.7965 24.3479 12.6348 24.3479 11.5009 24.1419L11.4652 24.3387ZM14.9661 24.3387L21.7403 23.1079L21.7045 22.9111L14.9303 24.1419L14.9661 24.3387ZM21.7404 23.1079C23.0028 22.8769 24.1442 22.2105 24.9659 21.2246L24.8123 21.0966C24.0205 22.0465 22.9208 22.6886 21.7044 22.9112L21.7404 23.1079ZM24.9659 21.2246C25.7876 20.2388 26.2375 18.996 26.2373 17.7127L26.0373 17.7127C26.0375 18.9493 25.604 20.1467 24.8123 21.0966L24.9659 21.2246ZM26.2373 17.7127V6.09071H26.0373V17.7127H26.2373ZM26.2373 6.09078C26.2378 5.28725 26.0612 4.4935 25.7199 3.76605L25.5388 3.85099C25.8676 4.55182 26.0378 5.31653 26.0373 6.09065L26.2373 6.09078ZM25.7199 3.76605C25.3786 3.03859 24.8812 2.39533 24.263 1.88206L24.1352 2.03594C24.7308 2.53043 25.2101 3.15015 25.5388 3.85099L25.7199 3.76605ZM12.153 22.0663C12.064 22.0536 11.9748 22.0387 11.8851 22.0227L11.8499 22.2196C11.9411 22.2359 12.0327 22.2512 12.1247 22.2643L12.153 22.0663ZM11.8854 22.0228L5.11762 20.7931L5.08186 20.9898L11.8496 22.2195L11.8854 22.0228ZM5.11764 20.7931C4.39635 20.6618 3.744 20.2816 3.27433 19.7187L3.12076 19.8468C3.62044 20.4457 4.31447 20.8502 5.08184 20.9898L5.11764 20.7931ZM3.27433 19.7187C2.80465 19.1558 2.54745 18.4458 2.54756 17.7127L2.34756 17.7127C2.34744 18.4927 2.62108 19.2479 3.12076 19.8468L3.27433 19.7187ZM2.54756 17.7127V6.09071H2.34756V17.7127H2.54756ZM2.54756 6.09071C2.54756 5.26047 2.87737 4.46424 3.46444 3.87717L3.32302 3.73575C2.69844 4.36032 2.34756 5.20743 2.34756 6.09071H2.54756ZM3.46444 3.87717C4.05151 3.2901 4.84774 2.96029 5.67798 2.96029V2.76029C4.7947 2.76029 3.94759 3.11117 3.32302 3.73575L3.46444 3.87717ZM5.67775 2.96029C5.86687 2.96074 6.05558 2.97786 6.24169 3.01146L6.27723 2.81464C6.07954 2.77896 5.8791 2.76077 5.67822 2.76029L5.67775 2.96029ZM6.24144 3.01141L10.3548 3.76518L10.3909 3.56846L6.27748 2.81469L6.24144 3.01141ZM10.3549 3.76518C10.8268 3.85154 11.2536 4.10041 11.5612 4.46859L11.7147 4.34036C11.3771 3.93632 10.9088 3.66322 10.3909 3.56845L10.3549 3.76518ZM11.5612 4.46859C11.8688 4.83678 12.0378 5.30104 12.0388 5.78081L12.2388 5.78038C12.2377 5.25388 12.0522 4.74441 11.7147 4.34036L11.5612 4.46859ZM12.0388 5.78059V22.1653H12.2388V5.78059H12.0388ZM23.8837 17.7127C23.8838 18.4458 23.6266 19.1558 23.1569 19.7187L23.3105 19.8468C23.8102 19.2479 24.0838 18.4927 24.0837 17.7127L23.8837 17.7127ZM23.1569 19.7187C22.6873 20.2816 22.0349 20.6618 21.3136 20.7931L21.3494 20.9898C22.1168 20.8502 22.8108 20.4457 23.3105 19.8468L23.1569 19.7187ZM21.3137 20.7931L14.5459 22.0228L14.5817 22.2195L21.3494 20.9898L21.3137 20.7931ZM14.5462 22.0227C14.4565 22.0387 14.3673 22.0536 14.2783 22.0663L14.3066 22.2643C14.3985 22.2512 14.4902 22.2359 14.5814 22.2196L14.5462 22.0227ZM14.3924 22.1653V5.78059H14.1924V22.1653H14.3924ZM14.3924 5.78058C14.3924 5.29963 14.5611 4.83392 14.8692 4.46463L14.7157 4.3365C14.3775 4.74175 14.1924 5.25282 14.1924 5.78061L14.3924 5.78058ZM14.8692 4.46463C15.1773 4.09534 15.6053 3.84591 16.0785 3.75982L16.0427 3.56305C15.5234 3.65752 15.0538 3.93125 14.7157 4.3365L14.8692 4.46463ZM16.0786 3.7598L20.1931 3.00603L20.157 2.80931L16.0425 3.56307L16.0786 3.7598ZM20.1929 3.00605C20.6445 2.9239 21.1085 2.94204 21.5523 3.05918L21.6033 2.8658C21.1312 2.74118 20.6375 2.72188 20.1571 2.80928L20.1929 3.00605ZM21.5523 3.05918C21.996 3.17632 22.4086 3.38959 22.7607 3.6839L22.889 3.53044C22.5143 3.21733 22.0754 2.99042 21.6033 2.8658L21.5523 3.05918ZM22.7607 3.6839C23.1129 3.97821 23.396 4.34635 23.5901 4.76225L23.7713 4.67768C23.5649 4.23521 23.2637 3.84355 22.889 3.53044L22.7607 3.6839ZM23.5901 4.76225C23.7842 5.17814 23.8844 5.63162 23.8837 6.09056L24.0837 6.09086C24.0844 5.6026 23.9778 5.12014 23.7713 4.67768L23.5901 4.76225ZM23.8837 6.09071V17.7127H24.0837V6.09071H23.8837Z" fill="white" mask="url(#path-1-inside-1_1139_59398)"/>
</svg>
