<svg width="25" height="25" viewBox="0 0 25 25" fill="none" xmlns="http://www.w3.org/2000/svg">
<path d="M11.3806 20.6722H11.1814L11.0085 20.771L7.18193 22.9576L6.75261 21.2403L6.61058 20.6722H6.025H2C1.30965 20.6722 0.75 20.1126 0.75 19.4222V3C0.75 1.75736 1.75736 0.75 3 0.75H21.1C22.3426 0.75 23.35 1.75736 23.35 3V18.4222C23.35 19.6649 22.3426 20.6722 21.1 20.6722H11.3806Z" stroke="#333333" stroke-width="1.5"/>
<path d="M8.37626 8.60378C8.37443 8.64431 8.38146 8.68477 8.39692 8.72267C8.41238 8.76056 8.43595 8.79509 8.46617 8.82413C8.4964 8.85317 8.53264 8.87611 8.57267 8.89153C8.61269 8.90695 8.65566 8.91454 8.69893 8.91382H9.80352C9.98828 8.91382 10.1356 8.77198 10.1597 8.60001C10.2802 7.7766 10.8827 7.17661 11.9564 7.17661C12.8749 7.17661 13.7157 7.60714 13.7157 8.64269C13.7157 9.43975 13.215 9.80627 12.4237 10.3636C11.5226 10.9774 10.809 11.6941 10.8599 12.8577L10.8639 13.1301C10.8653 13.2124 10.9012 13.2909 10.9638 13.3487C11.0264 13.4065 11.1108 13.4388 11.1986 13.4388H12.2845C12.3732 13.4388 12.4584 13.4058 12.5212 13.3469C12.5839 13.2881 12.6192 13.2083 12.6192 13.125V12.9932C12.6192 12.092 12.9847 11.8297 13.9715 11.128C14.7869 10.5468 15.6371 9.90166 15.6371 8.5473C15.6371 6.65068 13.9286 5.73438 12.0582 5.73438C10.3618 5.73438 8.50346 6.47495 8.37626 8.60378ZM10.4609 15.8375C10.4609 16.5066 11.0299 17.0011 11.8132 17.0011C12.6286 17.0011 13.1896 16.5066 13.1896 15.8375C13.1896 15.1447 12.6272 14.6576 11.8118 14.6576C11.0299 14.6576 10.4609 15.1447 10.4609 15.8375Z" fill="#333333"/>
</svg>
