<svg width="26" height="26" viewBox="0 0 26 26" fill="none" xmlns="http://www.w3.org/2000/svg">
<path d="M13.0703 2.37431C11.4094 2.37298 9.7711 2.75904 8.28555 3.50181C6.8 4.24459 5.50816 5.3236 4.51269 6.65311L4.45282 6.73308H4.55272H7.7468C8.01591 6.73308 8.274 6.83999 8.46429 7.03028C8.65458 7.22057 8.76149 7.47866 8.76149 7.74777C8.76149 8.01689 8.65458 8.27498 8.46429 8.46527C8.274 8.65556 8.01591 8.76247 7.7468 8.76247H3.48802C3.21891 8.76247 2.96082 8.65556 2.77053 8.46527C2.58024 8.27498 2.47333 8.01689 2.47333 7.74777V1.35961C2.47333 1.0905 2.58024 0.832411 2.77053 0.642119C2.96082 0.451827 3.21891 0.344922 3.48802 0.344922C3.75714 0.344922 4.01523 0.451827 4.20552 0.642119C4.39581 0.832411 4.50272 1.0905 4.50272 1.35961V3.54862V3.66043L4.58605 3.58589C6.75795 1.64328 9.53072 0.504839 12.4411 0.360775C15.3514 0.216711 18.2231 1.07575 20.5762 2.79437C22.9293 4.51299 24.6214 6.98708 25.3698 9.80326C26.1181 12.6194 25.8773 15.6071 24.6877 18.2672C23.4981 20.9272 21.4316 23.0984 18.8336 24.418C16.2357 25.7376 13.2635 26.1257 10.4138 25.5175C7.56407 24.9093 5.00939 23.3415 3.17658 21.0762C1.34378 18.8108 0.343879 15.9852 0.343945 13.0712C0.343945 12.8021 0.45085 12.544 0.641142 12.3537C0.831434 12.1635 1.08953 12.0565 1.35864 12.0565C1.62775 12.0565 1.88584 12.1635 2.07613 12.3537C2.26643 12.544 2.37333 12.8021 2.37333 13.0712C2.37333 15.1869 3.0007 17.255 4.17609 19.0141C5.35148 20.7732 7.02212 22.1443 8.97672 22.9539C10.9313 23.7635 13.0821 23.9754 15.1571 23.5626C17.2321 23.1499 19.1381 22.1311 20.6341 20.6351C22.1301 19.1391 23.1489 17.2331 23.5617 15.1581C23.9744 13.0831 23.7626 10.9323 22.9529 8.9777C22.1433 7.02309 20.7723 5.35246 19.0132 4.17707C17.2541 3.00168 15.1859 2.37432 13.0703 2.37431ZM13.0703 2.37431L13.0703 2.42431V2.37431C13.0703 2.37431 13.0703 2.37431 13.0703 2.37431ZM13.0224 13.0712V13.1212H13.0724H16.2665C16.5356 13.1212 16.7937 13.2281 16.984 13.4184C17.1743 13.6087 17.2812 13.8668 17.2812 14.1359C17.2812 14.405 17.1743 14.6631 16.984 14.8534C16.7937 15.0437 16.5356 15.1506 16.2665 15.1506H12.0077C11.7386 15.1506 11.4805 15.0437 11.2902 14.8534C11.0999 14.6631 10.993 14.405 10.993 14.1359V7.74777C10.993 7.47866 11.0999 7.22057 11.2902 7.03028C11.4805 6.83999 11.7386 6.73308 12.0077 6.73308C12.2768 6.73308 12.5349 6.83999 12.7252 7.03028C12.9155 7.22057 13.0224 7.47866 13.0224 7.74777V13.0712Z" fill="#333333" stroke="#333333" stroke-width="0.1"/>
</svg>
